<svg xmlns="http://www.w3.org/2000/svg" width="216" height="62.438" viewBox="0 0 216 62.438">
  <g id="Group_69759" data-name="Group 69759" transform="translate(18259.191 -4943.807)">
    <path id="Path_33466" data-name="Path 33466" d="M209.426,63.245H8.19A7.382,7.382,0,0,1,.808,55.863V8.19A7.383,7.383,0,0,1,8.19.807H209.426a7.383,7.383,0,0,1,7.382,7.383V55.863a7.382,7.382,0,0,1-7.382,7.382" transform="translate(-18260 4943)"/>
    <path id="Path_33468" data-name="Path 33468" d="M72.449,18.215,71.542,21.2H69.561l3.371-10.521h2.451L78.8,21.2H76.742l-.953-2.981Zm3.013-1.452-.829-2.591c-.2-.64-.374-1.358-.529-1.967h-.033c-.155.609-.312,1.342-.5,1.967l-.812,2.591Z" transform="translate(-18260 4943)" fill="#fff"/>
    <path id="Path_33469" data-name="Path 33469" d="M81.671,13.594,82.9,17.45c.219.671.374,1.28.515,1.9h.047c.141-.624.312-1.218.515-1.9L85.2,13.594h2.014l-2.9,7.6H82.42l-2.825-7.6Z" transform="translate(-18260 4943)" fill="#fff"/>
    <path id="Path_33470" data-name="Path 33470" d="M94.875,19.37A10.212,10.212,0,0,0,95,21.2H93.267l-.14-.842H93.08a2.781,2.781,0,0,1-2.248,1.014A2.256,2.256,0,0,1,88.444,19.1c0-1.9,1.7-2.888,4.511-2.872v-.125c0-.5-.2-1.327-1.545-1.327a4.025,4.025,0,0,0-2.045.562l-.375-1.249a5.48,5.48,0,0,1,2.747-.671c2.436,0,3.138,1.545,3.138,3.215ZM93,17.481c-1.358-.016-2.654.266-2.654,1.421a1.007,1.007,0,0,0,1.093,1.092,1.576,1.576,0,0,0,1.514-1.046A1.286,1.286,0,0,0,93,18.527Z" transform="translate(-18260 4943)" fill="#fff"/>
    <path id="Path_33471" data-name="Path 33471" d="M98.541,12.5a1.086,1.086,0,1,1,.016,0Zm-.952,1.092h1.92v7.6h-1.92Z" transform="translate(-18260 4943)" fill="#fff"/>
    <rect id="Rectangle_18108" data-name="Rectangle 18108" width="1.92" height="11.099" transform="translate(-18157.729 4953.098)" fill="#fff"/>
    <path id="Path_33472" data-name="Path 33472" d="M112.869,19.37a10.317,10.317,0,0,0,.124,1.826h-1.732l-.141-.842h-.047a2.779,2.779,0,0,1-2.248,1.014,2.256,2.256,0,0,1-2.388-2.263c0-1.9,1.7-2.888,4.511-2.872v-.125c0-.5-.2-1.327-1.545-1.327a4.025,4.025,0,0,0-2.045.562l-.374-1.249a5.477,5.477,0,0,1,2.747-.671c2.435,0,3.138,1.545,3.138,3.215ZM111,17.481c-1.357-.016-2.653.266-2.653,1.421a1.007,1.007,0,0,0,1.092,1.092,1.574,1.574,0,0,0,1.514-1.046,1.286,1.286,0,0,0,.047-.421Z" transform="translate(-18260 4943)" fill="#fff"/>
    <path id="Path_33473" data-name="Path 33473" d="M115.582,10.1H117.5v4.543h.031a2.75,2.75,0,0,1,2.435-1.218c1.857,0,3.183,1.545,3.168,3.856,0,2.731-1.733,4.09-3.449,4.09a2.615,2.615,0,0,1-2.4-1.312h-.031l-.094,1.14h-1.638c.03-.515.061-1.358.061-2.123Zm1.921,7.961a2.208,2.208,0,0,0,.046.453,1.756,1.756,0,0,0,1.7,1.342c1.2,0,1.937-.952,1.937-2.5,0-1.343-.64-2.435-1.92-2.435a1.785,1.785,0,0,0-1.7,1.4,2.371,2.371,0,0,0-.061.5Z" transform="translate(-18260 4943)" fill="#fff"/>
    <rect id="Rectangle_18109" data-name="Rectangle 18109" width="1.92" height="11.099" transform="translate(-18134.602 4953.098)" fill="#fff"/>
    <path id="Path_33474" data-name="Path 33474" d="M131.453,17.935a2.065,2.065,0,0,0,2.341,1.967,6.113,6.113,0,0,0,2.107-.344l.283,1.31a6.822,6.822,0,0,1-2.655.485,3.6,3.6,0,0,1-3.919-3.84c0-2.107,1.281-4.089,3.716-4.089,2.466,0,3.278,2.028,3.278,3.7a4.872,4.872,0,0,1-.062.812Zm3.341-1.344a1.634,1.634,0,0,0-1.577-1.856,1.878,1.878,0,0,0-1.764,1.856Z" transform="translate(-18260 4943)" fill="#fff"/>
    <path id="Path_33475" data-name="Path 33475" d="M146.077,21.369a3.676,3.676,0,0,1-3.81-3.918,3.754,3.754,0,0,1,3.934-4.028,3.648,3.648,0,0,1,3.778,3.9,3.763,3.763,0,0,1-3.887,4.043Zm.062-1.39c1.092,0,1.857-1.061,1.857-2.606,0-1.187-.531-2.561-1.841-2.561-1.359,0-1.906,1.327-1.906,2.592,0,1.467.735,2.575,1.874,2.575Z" transform="translate(-18260 4943)" fill="#fff"/>
    <path id="Path_33476" data-name="Path 33476" d="M152.24,15.858c0-.874-.031-1.608-.063-2.264h1.67l.094,1.14h.047a2.793,2.793,0,0,1,2.436-1.311c1.326,0,2.7.858,2.7,3.262V21.2H157.2V16.9c0-1.093-.406-1.92-1.452-1.92a1.61,1.61,0,0,0-1.5,1.124,1.765,1.765,0,0,0-.094.608V21.2h-1.92Z" transform="translate(-18260 4943)" fill="#fff"/>
    <path id="Path_33477" data-name="Path 33477" d="M167.97,11.643v1.951H169.8V15.03H167.97v3.341c0,.937.25,1.4.983,1.4a2.513,2.513,0,0,0,.749-.078l.032,1.451a4.2,4.2,0,0,1-1.39.2,2.2,2.2,0,0,1-1.654-.624,2.994,2.994,0,0,1-.609-2.139V15.03H165V13.594h1.077v-1.42Z" transform="translate(-18260 4943)" fill="#fff"/>
    <path id="Path_33478" data-name="Path 33478" d="M171.934,10.1h1.92v4.527h.031a2.536,2.536,0,0,1,.952-.859,2.715,2.715,0,0,1,1.327-.343c1.295,0,2.654.859,2.654,3.294V21.2H176.9V16.92c0-1.093-.406-1.936-1.468-1.936a1.6,1.6,0,0,0-1.5,1.077,1.739,1.739,0,0,0-.078.578V21.2h-1.92Z" transform="translate(-18260 4943)" fill="#fff"/>
    <path id="Path_33479" data-name="Path 33479" d="M182.9,17.935a2.065,2.065,0,0,0,2.341,1.967,6.113,6.113,0,0,0,2.107-.344l.282,1.31a6.812,6.812,0,0,1-2.654.485,3.6,3.6,0,0,1-3.919-3.84c0-2.107,1.281-4.089,3.716-4.089,2.466,0,3.278,2.028,3.278,3.7a4.872,4.872,0,0,1-.062.812Zm3.34-1.344a1.633,1.633,0,0,0-1.576-1.856,1.878,1.878,0,0,0-1.764,1.856Z" transform="translate(-18260 4943)" fill="#fff"/>
    <path id="Path_33480" data-name="Path 33480" d="M48.566,31.4a9.362,9.362,0,0,1,4.461-7.858,9.589,9.589,0,0,0-7.556-4.086c-3.177-.333-6.261,1.9-7.877,1.9-1.651,0-4.149-1.871-6.832-1.817A10.067,10.067,0,0,0,22.3,24.71c-3.66,6.338-.93,15.652,2.576,20.778C26.627,48,28.677,50.8,31.36,50.7c2.625-.109,3.6-1.672,6.774-1.672,3.141,0,4.062,1.672,6.8,1.609,2.818-.046,4.59-2.52,6.283-5.053a20.643,20.643,0,0,0,2.875-5.853A9.051,9.051,0,0,1,48.566,31.4" transform="translate(-18260 4943)" fill="#fff"/>
    <path id="Path_33481" data-name="Path 33481" d="M43.394,16.088A9.2,9.2,0,0,0,45.5,9.481a9.38,9.38,0,0,0-6.068,3.142,8.769,8.769,0,0,0-2.167,6.362,7.756,7.756,0,0,0,6.127-2.9" transform="translate(-18260 4943)" fill="#fff"/>
    <path id="Path_33482" data-name="Path 33482" d="M86.511,50.285H82.854l-2-6.3H73.887l-1.911,6.3H68.415l6.9-21.438h4.259Zm-6.264-8.941-1.811-5.6q-.291-.855-1.082-4.037H77.29q-.319,1.37-1.02,4.037l-1.781,5.6Z" transform="translate(-18260 4943)" fill="#fff"/>
    <path id="Path_33483" data-name="Path 33483" d="M104.259,42.364a8.785,8.785,0,0,1-2.132,6.234,6.228,6.228,0,0,1-4.737,2.035A4.746,4.746,0,0,1,93,48.438h-.061V56.58H89.5V39.914q0-2.479-.127-5.088h3.02l.192,2.45h.065a6.108,6.108,0,0,1,9.779-.6,8.524,8.524,0,0,1,1.829,5.692m-3.5.126a6.388,6.388,0,0,0-1.017-3.722,3.523,3.523,0,0,0-2.989-1.527,3.565,3.565,0,0,0-2.306.843A3.92,3.92,0,0,0,93.1,40.3a4.435,4.435,0,0,0-.158,1.046v2.579a4.126,4.126,0,0,0,1.03,2.845,3.427,3.427,0,0,0,2.689,1.16,3.5,3.5,0,0,0,3.02-1.493,6.564,6.564,0,0,0,1.083-3.945" transform="translate(-18260 4943)" fill="#fff"/>
    <path id="Path_33484" data-name="Path 33484" d="M122.037,42.364A8.781,8.781,0,0,1,119.9,48.6a6.224,6.224,0,0,1-4.738,2.035,4.74,4.74,0,0,1-4.387-2.195h-.064V56.58h-3.434V39.914q0-2.479-.127-5.088h3.02l.192,2.45h.066a6.107,6.107,0,0,1,9.778-.6,8.523,8.523,0,0,1,1.826,5.692m-3.5.126a6.367,6.367,0,0,0-1.02-3.722,3.519,3.519,0,0,0-2.988-1.527,3.57,3.57,0,0,0-2.307.843,3.915,3.915,0,0,0-1.349,2.214,4.31,4.31,0,0,0-.161,1.046v2.579a4.114,4.114,0,0,0,1.032,2.845,3.421,3.421,0,0,0,2.69,1.16,3.51,3.51,0,0,0,3.02-1.493,6.6,6.6,0,0,0,1.083-3.945" transform="translate(-18260 4943)" fill="#fff"/>
    <path id="Path_33485" data-name="Path 33485" d="M141.917,44.271a5.707,5.707,0,0,1-1.906,4.454,8.434,8.434,0,0,1-5.837,1.876,10.244,10.244,0,0,1-5.558-1.335l.8-2.862a9.419,9.419,0,0,0,4.967,1.366A4.694,4.694,0,0,0,137.4,46.9a2.862,2.862,0,0,0,1.079-2.342,3,3,0,0,0-.889-2.2,8.3,8.3,0,0,0-2.962-1.658q-5.629-2.1-5.626-6.149a5.431,5.431,0,0,1,1.971-4.33,7.778,7.778,0,0,1,5.248-1.692,10.4,10.4,0,0,1,4.865,1.019l-.857,2.8a8.453,8.453,0,0,0-4.1-.985,4.139,4.139,0,0,0-2.828.89,2.552,2.552,0,0,0-.858,1.94,2.614,2.614,0,0,0,.984,2.1,11.1,11.1,0,0,0,3.117,1.656,10.592,10.592,0,0,1,4.071,2.606,5.467,5.467,0,0,1,1.3,3.721" transform="translate(-18260 4943)" fill="#fff"/>
    <path id="Path_33486" data-name="Path 33486" d="M153.271,37.4h-3.785v7.506q0,2.864,2.006,2.862a6.237,6.237,0,0,0,1.524-.157l.094,2.607a7.715,7.715,0,0,1-2.67.381,4.116,4.116,0,0,1-3.18-1.238,6.093,6.093,0,0,1-1.146-4.168V37.4h-2.258V34.823h2.258V32l3.372-1.02v3.848h3.785Z" transform="translate(-18260 4943)" fill="#fff"/>
    <path id="Path_33487" data-name="Path 33487" d="M170.352,42.427a8.48,8.48,0,0,1-2.035,5.853,7.267,7.267,0,0,1-5.661,2.352,6.908,6.908,0,0,1-5.423-2.258,8.21,8.21,0,0,1-2.02-5.69A8.387,8.387,0,0,1,157.3,36.8a7.2,7.2,0,0,1,5.612-2.293,7.066,7.066,0,0,1,5.472,2.259,8.147,8.147,0,0,1,1.972,5.661m-3.564.111a6.961,6.961,0,0,0-.923-3.668,3.391,3.391,0,0,0-3.083-1.85,3.441,3.441,0,0,0-3.149,1.85,7.1,7.1,0,0,0-.919,3.734,6.956,6.956,0,0,0,.919,3.666,3.465,3.465,0,0,0,3.12,1.85,3.426,3.426,0,0,0,3.081-1.882,6.957,6.957,0,0,0,.954-3.7" transform="translate(-18260 4943)" fill="#fff"/>
    <path id="Path_33488" data-name="Path 33488" d="M181.514,37.846a6.09,6.09,0,0,0-1.08-.094,3.258,3.258,0,0,0-2.8,1.369,5.157,5.157,0,0,0-.857,3.051v8.111h-3.432l.029-10.589q0-2.673-.126-4.868h2.991l.126,2.959h.092a5.293,5.293,0,0,1,1.719-2.449,4.157,4.157,0,0,1,2.483-.828,5.656,5.656,0,0,1,.857.061Z" transform="translate(-18260 4943)" fill="#fff"/>
    <path id="Path_33489" data-name="Path 33489" d="M196.874,41.822a8.276,8.276,0,0,1-.124,1.559h-10.3a4.492,4.492,0,0,0,1.493,3.5,5.1,5.1,0,0,0,3.373,1.077,11.419,11.419,0,0,0,4.165-.73l.539,2.386a12.919,12.919,0,0,1-5.186.957,7.5,7.5,0,0,1-5.644-2.118,7.822,7.822,0,0,1-2.051-5.678,8.863,8.863,0,0,1,1.91-5.821,6.578,6.578,0,0,1,5.4-2.479,5.767,5.767,0,0,1,5.063,2.479,8.367,8.367,0,0,1,1.361,4.867m-3.275-.891a4.653,4.653,0,0,0-.665-2.639A3.008,3.008,0,0,0,190.2,36.86a3.265,3.265,0,0,0-2.733,1.4,5.084,5.084,0,0,0-1.015,2.67Z" transform="translate(-18260 4943)" fill="#fff"/>
  </g>
</svg>
