<svg xmlns="http://www.w3.org/2000/svg" xmlns:xlink="http://www.w3.org/1999/xlink" width="24" height="24" viewBox="0 0 24 24">
  <defs>
    <clipPath id="clip-path">
      <rect id="Rectangle_37" data-name="Rectangle 37" width="21.669" height="21.716" transform="translate(0 0)" fill="#274250"/>
    </clipPath>
  </defs>
  <g id="Group_67662" data-name="Group 67662" transform="translate(-141 -573)">
    <rect id="Rectangle_36" data-name="Rectangle 36" width="24" height="24" transform="translate(141 573)" fill="none"/>
    <g id="Group_67655" data-name="Group 67655" transform="translate(142 574)">
      <g id="Group_67654" data-name="Group 67654" clip-path="url(#clip-path)">
        <path id="Path_32712" data-name="Path 32712" d="M9.765,5.02a.86.86,0,0,0-1.172.326l-1.861,3.3a.86.86,0,0,0,.326,1.172A.872.872,0,0,0,8.23,9.492l1.861-3.3a.86.86,0,0,0-.326-1.17" fill="#274250"/>
        <path id="Path_32713" data-name="Path 32713" d="M21.542,12.528a3.077,3.077,0,0,0-1.555-1.835l-6.465-3.28c.243-.287.495-.568.762-.835a2.3,2.3,0,0,0,.683-1.4A3.315,3.315,0,0,0,13.3,1.989L10.542.429A3.314,3.314,0,0,0,6.948.645a2.3,2.3,0,0,0-.85,1.31,13.437,13.437,0,0,1-3.559,6.3,2.3,2.3,0,0,0-.683,1.4,3.316,3.316,0,0,0,1.67,3.19L6.281,14.4l.06.031a3.866,3.866,0,0,0,1.642.391,3.167,3.167,0,0,0,1.85-.6,2.322,2.322,0,0,0,.889-1.338c.091-.372.2-.736.325-1.1l6.146,3.857a3.12,3.12,0,0,0,2.375.383A2.75,2.75,0,0,0,21.59,12.7c-.014-.058-.03-.115-.048-.172ZM9.051,12.483c-.2.807-1.4.658-1.953.407L4.374,11.352c-.53-.3-1.179-1.317-.619-1.876a15.155,15.155,0,0,0,4.016-7.11c.19-.77,1.392-.74,1.926-.439l2.755,1.556c.536.3,1.17,1.325.619,1.876a15.144,15.144,0,0,0-4.019,7.124Zm10.763,1.373a1.239,1.239,0,0,1-1.708.323l-6.4-4a13.478,13.478,0,0,1,.771-1.366L19.2,12.226a1.224,1.224,0,0,1,.616,1.618l-.006.013Z" fill="#274250"/>
        <path id="Path_32714" data-name="Path 32714" d="M11.37,17.165a.86.86,0,0,0-.824-.613h-9.2a.86.86,0,0,0-.824.613L.1,18.583a2.435,2.435,0,0,0,2.331,3.133H9.47A2.434,2.434,0,0,0,11.9,19.282a2.469,2.469,0,0,0-.1-.7ZM10.039,19.71A.707.707,0,0,1,9.468,20H2.434a.712.712,0,0,1-.682-.917l.241-.8H9.908l.241.8a.706.706,0,0,1-.11.63" fill="#274250"/>
      </g>
    </g>
  </g>
</svg>
