<svg id="Group_67846" data-name="Group 67846" xmlns="http://www.w3.org/2000/svg" width="34.998" height="34.998" viewBox="0 0 34.998 34.998">
  <path id="Path_32765" data-name="Path 32765" d="M28.044,1H8.954A7.964,7.964,0,0,0,1,8.954V21.681a7.968,7.968,0,0,0,6.363,7.8v4.932a1.591,1.591,0,0,0,2.474,1.324l9.139-6.1h9.068A7.964,7.964,0,0,0,36,21.681V8.954A7.964,7.964,0,0,0,28.044,1ZM24.862,20.09H12.136a1.591,1.591,0,1,1,0-3.182H24.862a1.591,1.591,0,1,1,0,3.182Zm3.182-6.363H8.954a1.591,1.591,0,0,1,0-3.182h19.09a1.591,1.591,0,0,1,0,3.182Z" transform="translate(-1 -1)" fill="#f54583"/>
</svg>
