<svg xmlns="http://www.w3.org/2000/svg" width="33.23" height="36.884" viewBox="0 0 33.23 36.884">
  <g id="Group_67638" data-name="Group 67638" transform="translate(-44 -148)">
    <path id="Icon" d="M3,12.788V9.134A9.136,9.136,0,0,1,20.509,5.481M12.134,21.009v3.654" transform="translate(48.481 150)" fill="none" stroke="#3cc2fa" stroke-linecap="round" stroke-linejoin="round" stroke-width="4"/>
    <path id="Icon-2" data-name="Icon" d="M0,15.769c0-3.069,0-4.6.6-5.777a5.481,5.481,0,0,1,2.4-2.4C4.165,7,5.7,7,8.769,7H20.461c3.069,0,4.6,0,5.777.6a5.481,5.481,0,0,1,2.4,2.4c.6,1.172.6,2.707.6,5.777v2.558c0,3.069,0,4.6-.6,5.777a5.481,5.481,0,0,1-2.4,2.4c-1.172.6-2.707.6-5.777.6H8.769c-3.069,0-4.6,0-5.777-.6A5.481,5.481,0,0,1,.6,24.1C0,22.931,0,21.4,0,18.327Z" transform="translate(46 155.788)" fill="none" stroke="#f54583" stroke-linecap="round" stroke-linejoin="round" stroke-width="4"/>
  </g>
</svg>
