<svg xmlns="http://www.w3.org/2000/svg" xmlns:xlink="http://www.w3.org/1999/xlink" width="93" height="93" viewBox="0 0 93 93">
  <defs>
    <linearGradient id="linear-gradient" x1="0.5" x2="0.5" y2="1" gradientUnits="objectBoundingBox">
      <stop offset="0" stop-color="#e9f3f9"/>
      <stop offset="1" stop-color="#fff"/>
    </linearGradient>
  </defs>
  <g id="Group_68341" data-name="Group 68341" transform="translate(-141 -303)">
    <rect id="Rectangle_17926" data-name="Rectangle 17926" width="93" height="93" rx="32" transform="translate(141 303)" fill="url(#linear-gradient)"/>
    <g id="Group_68343" data-name="Group 68343" transform="translate(18 -251.893)">
      <rect id="Rectangle_36" data-name="Rectangle 36" width="57" height="57" transform="translate(141 572.893)" fill="none"/>
    </g>
    <g id="Group_68353" data-name="Group 68353" transform="translate(134 -60)">
      <rect id="bell-03" width="55" height="55" transform="translate(26 382)" fill="none"/>
      <path id="Icon" d="M36.164,27.775c1.849,3.128,2.774,4.692,2.738,5.065a.9.9,0,0,1-.465.816c-.3.222-1.825.222-4.87.222H5.336c-3.044,0-4.567,0-4.87-.222A.9.9,0,0,1,0,32.84c-.037-.374.888-1.937,2.738-5.065A22.8,22.8,0,0,0,5.662,15.951,11.2,11.2,0,0,1,9.7,7.5,14.935,14.935,0,0,1,19.452,4,14.935,14.935,0,0,1,29.2,7.5a11.2,11.2,0,0,1,4.039,8.451,22.8,22.8,0,0,0,2.923,11.824Z" transform="translate(34.127 391.79)" fill="none" stroke="#c1d0db" stroke-linecap="round" stroke-linejoin="round" stroke-width="3.5"/>
      <path id="Icon-2" data-name="Icon" d="M19.253,39.07a6.895,6.895,0,1,1-13.79,0M8.23,9.741a5.746,5.746,0,1,1,8.258,0" transform="translate(41.22 386.597)" fill="none" stroke="#c1d0db" stroke-linecap="round" stroke-linejoin="round" stroke-width="3.5"/>
    </g>
  </g>
</svg>
