<svg xmlns="http://www.w3.org/2000/svg" width="38" height="38" viewBox="0 0 38 38">
  <g id="Group_67640" data-name="Group 67640" transform="translate(-30 -127)">
    <rect id="passcode-lock" width="38" height="38" transform="translate(30 127)" fill="none"/>
    <path id="Icon" d="M14.25,15.833H5.067c-1.773,0-2.66,0-3.338-.345A3.167,3.167,0,0,1,.345,14.1C0,13.427,0,12.54,0,10.767v-5.7c0-1.773,0-2.66.345-3.338A3.167,3.167,0,0,1,1.729.345C2.406,0,3.293,0,5.067,0H26.6c1.774,0,2.66,0,3.338.345a3.167,3.167,0,0,1,1.384,1.384c.345.677.345,1.564.345,3.338V9.5M15.841,7.917h-.008m7.925,0H23.75m-15.833,0h.008M21.771,19V16.229a2.771,2.771,0,0,1,5.542,0V19" transform="translate(33.167 134.917)" fill="none" stroke="#3cc2fa" stroke-linecap="round" stroke-linejoin="round" stroke-width="3.5"/>
    <path id="Icon-2" data-name="Icon" d="M12,14.533a3.934,3.934,0,0,1,.173-1.669,1.583,1.583,0,0,1,.692-.692A3.934,3.934,0,0,1,14.533,12H20.55a3.934,3.934,0,0,1,1.669.173,1.583,1.583,0,0,1,.692.692,3.934,3.934,0,0,1,.173,1.669V15.8a3.934,3.934,0,0,1-.173,1.669,1.583,1.583,0,0,1-.692.692,3.934,3.934,0,0,1-1.669.173H14.533a3.934,3.934,0,0,1-1.669-.173,1.583,1.583,0,0,1-.692-.692A3.934,3.934,0,0,1,12,15.8Z" transform="translate(40.167 141.917)" fill="none" stroke="#f54583" stroke-linecap="round" stroke-linejoin="round" stroke-width="3.5"/>
  </g>
</svg>
