<svg id="Group_67676" data-name="Group 67676" xmlns="http://www.w3.org/2000/svg" width="73.451" height="89.774" viewBox="0 0 73.451 89.774">
  <path id="Path_41" data-name="Path 41" d="M39.726,1,73.256,8.451a4.082,4.082,0,0,1,3.2,3.983V53.187a24.481,24.481,0,0,1-10.9,20.371L39.726,90.774,13.9,73.558A24.474,24.474,0,0,1,3,53.191V12.434A4.082,4.082,0,0,1,6.2,8.451Zm0,8.361L11.161,15.707V53.187a16.321,16.321,0,0,0,7.268,13.58l21.3,14.2,21.3-14.2A16.314,16.314,0,0,0,68.29,53.191V15.707L39.726,9.365Z" transform="translate(-3 -1)" fill="#f54583"/>
  <path id="Path_42" data-name="Path 42" d="M60.386,34.7l5.774,5.77L40.19,66.435,22.876,49.121l5.77-5.77,11.54,11.54,20.2-20.2Z" transform="translate(-5.493 -5.226)" fill="#3cc2fa"/>
</svg>
